<svg width="1000" height="585" viewBox="0 0 1000 585" fill="none" xmlns="http://www.w3.org/2000/svg">
<g clip-path="url(#clip0)">
<path d="M0 7.24133V259.562H132.111C184.11 259.562 232.162 241.312 232.162 187.704C232.162 151.464 206.054 134.92 177.339 126.261C194.834 119.243 214.681 104.5 214.681 73.5946C214.681 34.0384 175.433 7.24133 122.59 7.24133H0V7.24133ZM80.9331 66.0071H110.688C122.801 66.0071 132.037 75.495 132.037 85.1246C132.037 94.0713 122.44 103.647 110.688 103.647H80.9331V66.0071ZM80.9331 156.015H120.209C133.921 156.015 145.427 166.429 145.427 178.332C145.427 190.971 134.666 201.466 117.829 201.466H80.9331V156.015V156.015Z" fill="white"/>
<path d="M65.4606 287.085V539.406H197.572C249.57 539.406 297.623 521.155 297.623 467.548C297.623 431.307 271.515 414.764 242.799 406.104C260.295 399.086 280.142 384.343 280.142 353.438C280.142 313.882 240.893 287.085 188.05 287.085H65.4606V287.085ZM146.394 345.85H176.149C188.261 345.85 197.498 355.338 197.498 364.968C197.498 373.915 187.9 383.49 176.149 383.49H146.394V345.85ZM146.394 435.859H185.67C199.381 435.859 210.887 446.272 210.887 458.175C210.887 470.814 200.126 481.309 183.29 481.309H146.394V435.859V435.859Z" fill="white"/>
<path d="M238.515 259.532V7.21081H442.038V68.1487H319.21V101.236H418.948V158.365H319.21V198.832H442.038V259.532H238.515Z" fill="white"/>
<path d="M552.288 266.754C609.576 266.754 655.399 234.077 655.399 181.122C655.399 95.6609 544.221 108.812 544.221 82.2032C544.221 71.9249 555.031 66.4705 566.116 66.4705C585.22 66.4705 599.023 79.0567 599.023 79.0567L646.854 33.5134C627.723 15.3069 597.509 0 556.807 0C495.68 0 455.689 36.2802 455.689 80.0449C455.689 166.593 565.264 154.032 565.264 181.188C565.264 190.707 556.105 200.284 539.495 200.284C520.636 200.284 505.696 188.899 494.069 179.24L445.958 225.108C465.331 243.978 496.433 266.754 552.288 266.754V266.754Z" fill="white"/>
<path d="M717.686 259.532V67.9106H651.035V7.21081H865.27V67.9106H798.619V259.532H717.686Z" fill="white"/>
<path d="M300.405 286.906H381.1V438.061C381.1 453.41 396.376 467.554 412.303 467.554C427.327 467.554 442.514 454.781 442.514 437.253V286.906H522.971V436.225C522.971 495.476 473.778 542.739 410.17 542.739C346.201 542.739 300.405 491.302 300.405 432.997V286.906Z" fill="white"/>
<path d="M622.471 539.227V449.065L527.626 286.906H609.271L662.937 373.79L716.789 286.906H798.619L703.404 449.992V539.227H622.471Z" fill="white"/>
<path d="M798.619 424.999L751.012 472.607V536.877L798.619 584.485H1000V424.999H798.619Z" fill="white"/>
<path d="M790.8 504.711C790.8 510.627 786.004 515.423 780.088 515.423C774.173 515.423 769.377 510.627 769.377 504.711C769.377 498.795 774.173 494 780.088 494C786.004 494 790.8 498.795 790.8 504.711Z" fill="#373737"/>
</g>
<defs>
<clipPath id="clip0">
<rect width="1000" height="584.485" fill="white"/>
</clipPath>
</defs>
</svg>
