<svg width="374" height="74" viewBox="0 0 374 74" fill="none" xmlns="http://www.w3.org/2000/svg">
<path d="M189.524 45.2787L183.791 45.9614C178.805 46.5792 174.437 48.3515 174.437 52.5823C174.437 55.5859 177.028 57.6374 180.375 57.6374C184.336 57.6374 187.61 55.0411 189.661 52.445V45.2793L189.524 45.2787ZM189.593 63.5066V59.2073C187.546 61.5974 184.267 64.3951 178.462 64.3951C171.772 64.3951 166.241 60.1597 166.241 52.9253C166.241 44.1157 174.501 40.9107 182.56 40.0224L185.701 39.6784C188.773 39.4032 189.863 37.7004 189.863 35.6537C189.863 33.1263 187.477 31.2856 183.86 31.2856C179.693 31.2856 175.664 34.2845 174.162 36.6746L169.382 31.0107C172.317 27.1829 177.509 24.5228 184.267 24.5228C193.004 24.5228 198.059 29.0282 198.059 36.5374V63.5063L189.593 63.5066Z" fill="white"/>
<path d="M213.96 63.509H205.562V25.4139H213.96V29.7133C216.963 26.9797 221.469 24.5211 226.386 24.5211C230.892 24.5211 237.032 27.1218 237.032 36.4029V63.509H228.639V38.5869C228.639 34.8323 227.069 31.6226 223.177 31.6226C219.967 31.6226 215.873 34.3516 213.96 36.1327V63.509Z" fill="white"/>
<path d="M266.585 25.4119H274.982V63.507H266.31V59.4138C263.989 61.5978 260.234 64.3954 255.317 64.3954C250.404 64.3954 243.577 61.7991 243.577 52.2433V25.4119H251.974V49.5099C251.974 53.9512 253.888 57.0236 257.844 57.0236C261.123 57.0236 264.195 54.9035 266.585 52.2433V25.4119Z" fill="white"/>
<path d="M292.653 63.509H284.255V13.3948L292.653 5.06598V63.509Z" fill="white"/>
<path d="M310.673 63.5082H301.932V25.413H310.673V63.5082ZM306.305 8.27472C309.171 8.27472 311.625 10.6648 311.625 13.5998C311.625 16.5347 309.171 18.9935 306.305 18.9935C303.365 18.9935 300.906 16.5347 300.906 13.5998C300.906 10.6648 303.365 8.27472 306.305 8.27472Z" fill="white"/>
<path d="M337.294 32.3749H329.304V63.5104H320.911V32.3749H315.787V25.4106H320.911V17.5581C320.911 11.2761 324.936 5.612 332.857 5.612C336.543 5.612 339.615 6.63352 341.456 7.59008L338.795 14.147C337.632 13.4643 335.86 12.7824 334.152 12.7824C331.488 12.7824 329.304 14.7604 329.304 18.0388V25.4106H339.272L337.294 32.3749Z" fill="white"/>
<path d="M364.461 40.2943C364.461 35.656 361.526 31.2832 356.407 31.2832C351.494 31.2832 347.666 35.9261 347.529 40.2943H364.461ZM347.259 46.7137C347.327 52.8584 351.764 57.2264 357.021 57.2264C360.981 57.2264 365.075 54.5662 366.851 51.3565L372.107 56.2694C369.035 60.7749 363.096 64.3923 356.201 64.3923C345.345 64.3923 338.587 56.2009 338.587 44.4564C338.587 33.1286 345.89 24.5251 356.471 24.5251C366.576 24.5251 373.678 31.146 373.266 46.7137H347.259Z" fill="white"/>
<path d="M118.056 63.5091H108.907V10.6292H118.806L134.374 36.6456H134.512L150.006 10.6292H159.704V63.5091H150.482V26.0597H150.349L134.301 52.6897L118.193 26.0597H118.056V63.5091Z" fill="white"/>
<path d="M53.5933 13.9377V73.4248L66.8121 60.2013V0.718933L53.5933 13.9377Z" fill="white"/>
<path d="M27.1562 73.4229L40.3749 60.204V0.717041L27.1562 13.9358V73.4229Z" fill="white"/>
<path d="M0.717026 73.4229L13.9359 60.204V0.717041L0.717026 13.9358V73.4229Z" fill="white"/>
</svg>
