<svg width="1290" height="237" viewBox="0 0 1290 237" fill="none" xmlns="http://www.w3.org/2000/svg">
<g clip-path="url(#clip0)">
<path d="M15 7.49118V121.147V234.802H40.2793H65.5586V197.671V160.538L80.3711 160.71L95.1816 160.882L116.926 197.843L138.668 234.802H167.684H196.699L171.42 192.806C157.516 169.707 146.226 150.771 146.33 150.726C154.888 146.994 163.709 141.1 169.865 135.003C179.383 125.576 185.052 114.846 188.215 100.272C189.826 92.8499 189.832 73.6389 188.227 65.6162C181.875 33.8784 160.57 15.2868 123.473 9.11227C118 8.20145 109.726 8.00901 66.0391 7.77048L15 7.49118ZM65.5586 51.7627H86.3027C108.275 51.7627 112.752 52.1843 120.115 54.9502C124.927 56.7579 130.636 61.1396 133.252 65.0322C136.885 70.4382 138.033 74.3301 138.377 82.4033C138.883 94.301 136.631 101.031 129.889 107.769C125.311 112.342 121.187 114.671 114.406 116.509C109.9 117.73 107.251 117.895 87.959 118.157C76.167 118.317 66.3031 118.227 66.0391 117.958C65.7751 117.689 65.5586 102.686 65.5586 84.6162V51.7627Z" fill="white"/>
<path d="M244.119 121.202V7.6022H321.239H398.359V29.6822V51.7622H346.519H294.679V75.1222V98.4822H340.119H385.559V120.562V142.642H340.119H294.679V166.962V191.282H328.599C347.255 191.282 362.519 191.42 362.519 191.588C362.519 191.874 347.304 220.895 342.13 230.478L339.799 234.794L291.959 234.798L244.119 234.802V121.202Z" fill="white"/>
<path d="M392.789 234.008C392.972 233.565 419.888 182.514 452.603 120.562L512.085 7.9222L542.973 7.75601C567.61 7.62346 573.794 7.753 573.53 8.39601C573.348 8.83942 546.425 59.8902 513.7 121.842L454.2 234.482L423.329 234.648C398.705 234.781 392.525 234.651 392.789 234.008Z" fill="white"/>
<path d="M574.999 170.782V106.762L601 57.5023C615.301 30.4093 627.2 8.2422 627.443 8.2422C627.686 8.2422 630.492 11.9142 633.678 16.4022C639.119 24.068 666.123 62.2331 675.338 75.2822C677.638 78.5382 679.69 81.191 679.899 81.1772C680.108 81.1635 691.799 64.6072 705.879 44.3855L731.479 7.61868L757.879 7.61044L784.279 7.6022V121.202V234.802H759.639H734.999V164.402C734.999 125.682 734.783 94.0136 734.519 94.0276C734.255 94.0416 721.954 109.894 707.183 129.254C687.819 154.636 680.019 164.404 679.223 164.269C678.616 164.166 666.077 148.397 651.359 129.226L624.599 94.3689L624.437 164.586L624.274 234.802H599.637H574.999V170.782Z" fill="white"/>
<path d="M909.234 6.32126L908.535 8.08298C908.15 9.05098 898.637 34.4655 887.396 64.5615C876.156 94.6575 857.284 145.144 845.459 176.753C833.634 208.362 823.959 234.354 823.959 234.513C823.959 234.672 835.406 234.799 849.398 234.796L874.84 234.792L877.504 227.276C878.97 223.143 882.827 212.202 886.074 202.962L891.979 186.163H932.209C954.336 186.163 972.439 186.237 972.439 186.329C972.439 186.785 989.603 234.258 989.861 234.516C990.026 234.681 1001.85 234.741 1016.13 234.649L1042.1 234.481L1024.87 188.401C1015.39 163.057 996.195 111.721 982.209 74.3212L956.779 6.32126H933.008H909.234ZM932.1 74.0009C932.452 73.5829 956.511 141.534 956.459 142.802C956.448 143.066 945.495 143.282 932.119 143.282C918.743 143.282 907.793 143.066 907.787 142.802C907.77 142.08 931.631 74.5567 932.1 74.0009Z" fill="white"/>
<path d="M1067.41 226.009C1132.24 119.866 1132.48 119.446 1131.5 117.942C1129.33 114.631 1065.24 8.21226 1065.24 7.921C1065.24 7.74566 1078.14 7.6022 1093.9 7.6022H1122.56L1142.16 43.2624C1152.94 62.8754 1162.01 79.0041 1162.3 79.1038C1162.6 79.2035 1171.74 63.3724 1182.6 43.9237C1193.46 24.4749 1202.55 8.34314 1202.79 8.07539C1203.04 7.80764 1215.81 7.66364 1231.17 7.75539L1259.1 7.9222L1239.87 39.2822C1229.3 56.5302 1214.29 81.0102 1206.51 93.6822C1198.74 106.354 1192.1 117.186 1191.75 117.754C1191.1 118.819 1192.33 120.986 1209.88 149.682C1213.65 155.842 1226.46 176.866 1238.36 196.402C1250.25 215.938 1260.41 232.573 1260.93 233.369L1261.88 234.815L1232.87 234.649L1203.87 234.482L1182.93 197.063C1171.42 176.482 1161.75 159.56 1161.45 159.458C1161.14 159.356 1159.1 162.515 1156.9 166.478C1154.7 170.44 1145.18 187.362 1135.73 204.082L1118.56 234.482L1090.3 234.649L1062.03 234.816L1067.41 226.009Z" fill="white"/>
<path d="M1286.31 0.000942075C1282.05 0.0466721 1277.81 1.75577 1274.45 5.11618C1266.25 13.3178 1269.64 28.3701 1280.55 32.247C1284.39 33.609 1289.69 33.4775 1293.11 31.9326C1304.14 26.9456 1306.75 13.1202 1298.22 4.86227C1294.82 1.57433 1290.56 -0.044788 1286.31 0.000942075V0.000942075ZM1286.86 2.56149C1291.72 2.62239 1296.33 5.44456 1298.9 10.4521C1299.88 12.3554 1300.25 15.0396 1300.06 17.6982C1299.87 20.3568 1299.11 22.9907 1297.86 24.792C1296.84 26.2625 1294.83 28.1482 1293.41 28.9638C1288.51 31.7808 1283.5 31.5296 1278.8 28.2275C1270.24 22.212 1271.01 9.26235 1280.23 4.24704C1282.38 3.07554 1284.64 2.53381 1286.86 2.56149V2.56149Z" fill="white"/>
<path d="M1280.28 7.60251V16.8818V26.1631H1283.48V18.4814H1285.71C1288.27 18.4814 1289.48 19.9289 1290.16 23.7627C1290.33 24.7765 1290.63 26.1786 1291.08 26.1741L1292.19 26.1631L1293.56 26.1631C1293.76 25.9898 1293.6 25.4702 1293.48 25.042C1293.3 24.426 1292.84 22.708 1292.46 21.2236C1292.07 19.7393 1291.99 18.7508 1291.2 18.1297C1290.76 17.7824 1289.95 17.2247 1290.05 16.9503C1290.14 16.6759 1290.54 16.5424 1291.33 15.9267C1293.72 14.0416 1293.75 10.7868 1291.39 8.92868C1290.03 7.85945 1288.79 7.60251 1284.99 7.60251L1280.28 7.60251ZM1283.48 9.52243H1285.72C1288.02 9.52243 1290.52 11.2999 1290.52 12.9424C1290.52 13.4158 1289.99 14.2797 1289.35 14.8623C1288.71 15.4448 1287.12 15.9228 1285.83 15.9228H1283.48V12.7216V9.52243Z" fill="white"/>
</g>
<defs>
<clipPath id="clip0">
<rect width="1289.6" height="236.16" fill="white"/>
</clipPath>
</defs>
</svg>
